# xmcd CD database file
#
# Track frame offsets:
#	153
#	13215
#	29025
#	44551
#	60546
#	74175
#	94968
#	111405
#	125524
#	141055
#	153407
#	168010
#	189706
#	206297
#
# Disc length: 2777 seconds
#
# Revision: 2
# Processed by: cddbd v1.5.1PL2 Copyright (c) Steve Scherf et al.
# Submitted via: CDex 1.51
#
DISCID=d30ad70e
DTITLE=Ray Scott - My Kind Of Music
DYEAR=2005
DGENRE=Country
TTITLE0=Gone Either Way
TTITLE1=Makin' My Way
TTITLE2=Different Kind of Cowboy
TTITLE3=Walls
TTITLE4=My Kind Of Music
TTITLE5=Plowboy
TTITLE6=I Didn't Come Here To Talk
TTITLE7=Dirty Shirt
TTITLE8=Time
TTITLE9=Rats Don't Race
TTITLE10=Fly With An Angel
TTITLE11=Gypsy
TTITLE12=Bear With Me Lord
TTITLE13=Extra Track
EXTD=YEAR: 2005
EXTT0=
EXTT1=
EXTT2=
EXTT3=
EXTT4=
EXTT5=
EXTT6=
EXTT7=
EXTT8=
EXTT9=
EXTT10=
EXTT11=
EXTT12=
EXTT13=
PLAYORDER=
